<?xml version="1.0" encoding="UTF-8"?>
<svg width="512" height="512" viewBox="0 0 512 512" fill="none" xmlns="http://www.w3.org/2000/svg">
  <path d="M256 64C256 64 320 128 320 192C320 256 256 320 256 320C256 320 192 256 192 192C192 128 256 64 256 64Z" fill="#FF4500"/>
  <path d="M320 192C320 192 384 256 384 320C384 384 320 448 320 448C320 448 256 384 256 320C256 256 320 192 320 192Z" fill="#FFA500"/>
  <path d="M192 192C192 192 128 256 128 320C128 384 192 448 192 448C192 448 256 384 256 320C256 256 192 192 192 192Z" fill="#FFD700"/>
</svg> 